<svg width="1364" height="1345" viewBox="0 0 1364 1345" fill="none" xmlns="http://www.w3.org/2000/svg">
<g clip-path="url(#clip0)">
<path opacity="0.3" d="M1305.33 907.367C1176.19 1211.33 832.204 1381.6 533.895 1335.67C485.354 1328.2 352.278 1305.93 234.458 1200.9C7.64569 998.7 -40.8595 598.318 142.103 316.16C275.267 110.798 513.979 -5.61442 740.801 0.208581C789.659 1.4629 976.901 9.19302 1141.45 144.833C1165.62 164.756 1218.93 212.098 1266.98 287.204C1379.79 463.564 1389.49 709.274 1305.33 907.367Z" fill="url(#paint0_linear)"/>
<path d="M501.554 443.228C500.661 443.162 499.815 442.666 499.34 441.828C497.541 438.653 495.643 435.487 493.7 432.415C492.88 431.119 493.267 429.404 494.565 428.585C495.861 427.767 497.578 428.154 498.398 429.447C500.387 432.593 502.332 435.837 504.176 439.089C504.932 440.423 504.462 442.118 503.128 442.876C502.631 443.156 502.084 443.268 501.554 443.228Z" fill="white"/>
<path d="M280.793 791.785C276.591 791.523 272.279 791.039 268.084 790.5C266.561 790.302 265.488 788.91 265.684 787.389C265.881 785.866 267.282 784.831 268.795 784.988C272.89 785.519 277.137 785.929 281.206 786.245C284.222 786.471 287.307 786.636 290.382 786.74C291.953 786.68 293.117 788.075 293.066 789.608C293.015 791.141 291.73 792.343 290.196 792.291C287.044 792.187 283.882 792.016 280.793 791.785ZM325.646 790.753C324.347 790.656 323.258 789.653 323.096 788.313C322.915 786.79 324.002 785.408 325.526 785.225C332.448 784.398 339.439 783.239 346.303 781.785L346.9 781.658C348.397 781.34 349.875 782.299 350.194 783.797C350.513 785.298 349.554 786.773 348.053 787.091L347.456 787.218C340.429 788.709 333.273 789.894 326.185 790.742C326.003 790.764 325.822 790.766 325.646 790.753ZM381.406 777.074C380.364 776.996 379.41 776.332 379.014 775.291C378.469 773.857 379.191 772.252 380.624 771.709C387.367 769.146 394.049 766.242 400.486 763.077C401.861 762.405 403.529 762.967 404.205 764.345C404.883 765.721 404.315 767.387 402.938 768.064C396.346 771.304 389.503 774.278 382.599 776.899C382.205 777.049 381.799 777.103 381.406 777.074ZM432.136 750.242C431.334 750.182 430.563 749.777 430.065 749.065C429.185 747.808 429.491 746.076 430.749 745.197C436.636 741.077 442.399 736.627 447.88 731.966C449.048 730.974 450.8 731.118 451.797 732.283C452.791 733.453 452.649 735.205 451.48 736.2C445.868 740.971 439.965 745.528 433.935 749.748C433.39 750.129 432.754 750.289 432.136 750.242ZM474.751 711.809C474.176 711.765 473.61 711.544 473.141 711.139C471.981 710.133 471.856 708.38 472.861 707.221C477.566 701.791 482.074 696.07 486.262 690.214C487.153 688.966 488.888 688.674 490.139 689.57C491.386 690.463 491.676 692.198 490.783 693.445C486.496 699.442 481.879 705.298 477.06 710.858C476.462 711.548 475.597 711.872 474.751 711.809ZM506.765 664.165C506.41 664.139 506.054 664.044 505.717 663.872C504.347 663.18 503.801 661.507 504.494 660.139C507.75 653.721 510.737 647.076 513.373 640.391C513.937 638.961 515.554 638.268 516.977 638.826C518.406 639.39 519.106 641.003 518.543 642.43C515.843 649.274 512.784 656.079 509.451 662.652C508.928 663.682 507.849 664.247 506.765 664.165ZM526.256 610.183C526.12 610.173 525.982 610.152 525.844 610.123C524.348 609.782 523.409 608.295 523.748 606.8C525.341 599.773 526.615 592.598 527.538 585.478C527.734 583.956 529.134 582.836 530.65 583.08C532.171 583.275 533.246 584.669 533.05 586.188C532.105 593.484 530.8 600.831 529.17 608.026C528.861 609.385 527.605 610.284 526.256 610.183ZM531.928 553.051C530.521 552.946 529.396 551.79 529.359 550.351C529.18 543.165 528.656 535.899 527.802 528.752C527.621 527.229 528.708 525.847 530.232 525.664C531.761 525.479 533.139 526.572 533.321 528.092C534.194 535.412 534.731 542.853 534.915 550.211C534.953 551.745 533.741 553.021 532.206 553.058C532.112 553.059 532.02 553.057 531.928 553.051ZM523.494 496.266C522.356 496.181 521.344 495.398 521.022 494.235C519.101 487.278 516.837 480.355 514.295 473.654C513.752 472.22 514.473 470.617 515.908 470.072C517.339 469.534 518.948 470.247 519.493 471.686C522.095 478.544 524.411 485.634 526.379 492.758C526.787 494.235 525.919 495.764 524.44 496.173C524.122 496.262 523.804 496.289 523.494 496.266Z" fill="white"/>
<path d="M233.255 783.239C233.066 783.225 232.875 783.191 232.685 783.136C229.113 782.1 225.509 780.964 221.97 779.755C220.517 779.261 219.741 777.683 220.238 776.229C220.733 774.775 222.314 773.985 223.764 774.498C227.221 775.678 230.744 776.79 234.234 777.801C235.707 778.229 236.555 779.77 236.128 781.242C235.755 782.525 234.538 783.334 233.255 783.239Z" fill="white"/>
<path d="M90.5626 666.382C89.6331 666.312 88.7613 665.78 88.2999 664.891C86.596 661.605 84.9351 658.21 83.3632 654.793C82.7218 653.399 83.3332 651.749 84.7269 651.108C86.1259 650.467 87.7708 651.08 88.4127 652.471C89.9468 655.809 91.5685 659.126 93.2338 662.332C93.9405 663.693 93.4085 665.37 92.0468 666.076C91.5724 666.324 91.0588 666.418 90.5626 666.382Z" fill="white"/>
<path d="M73.4932 623.576C72.3677 623.491 71.3608 622.723 71.0307 621.575C69.4574 616.115 68.0589 610.522 66.8762 604.955C66.5514 603.421 66.2426 601.892 65.9468 600.362C65.6568 598.855 66.6444 597.4 68.1504 597.11C69.666 596.816 71.1144 597.808 71.4049 599.312C71.6919 600.808 71.995 602.304 72.3116 603.802C73.4671 609.238 74.8337 614.702 76.3697 620.036C76.7942 621.51 75.9432 623.051 74.4696 623.474C74.1424 623.57 73.8137 623.6 73.4932 623.576ZM64.4306 567.83C63.0423 567.726 61.923 566.596 61.8659 565.174C61.5711 557.933 61.6137 550.592 61.9923 543.355C62.0712 541.825 63.3782 540.646 64.9108 540.725C66.3863 540.821 67.6222 542.111 67.5404 543.644C67.1715 550.713 67.1304 557.88 67.4179 564.947C67.4799 566.48 66.2886 567.773 64.7545 567.835C64.6451 567.841 64.5376 567.838 64.4306 567.83ZM69.028 511.531C68.9094 511.522 68.7894 511.505 68.6698 511.482C67.1662 511.172 66.2 509.701 66.5098 508.199C67.9727 501.102 69.7871 493.989 71.9016 487.061C72.3484 485.593 73.9105 484.771 75.3701 485.214C76.8373 485.661 77.6656 487.213 77.2173 488.682C75.1527 495.447 73.3814 502.39 71.9524 509.323C71.6663 510.705 70.3999 511.633 69.028 511.531ZM87.0477 458.007C86.7122 457.982 86.3768 457.898 86.0568 457.743C84.6718 457.082 84.0856 455.425 84.7468 454.041C87.8716 447.502 91.3367 441.033 95.0463 434.812C95.8305 433.494 97.534 433.056 98.8556 433.848C100.174 434.632 100.606 436.337 99.8189 437.654C96.1965 443.73 92.8132 450.049 89.7625 456.434C89.2527 457.497 88.1558 458.09 87.0477 458.007ZM117.341 410.344C116.791 410.303 116.248 410.099 115.789 409.723C114.603 408.75 114.428 407.002 115.401 405.815C119.988 400.217 124.896 394.763 129.987 389.599C131.063 388.509 132.822 388.494 133.916 389.571C135.009 390.648 135.021 392.406 133.943 393.5C128.973 398.542 124.179 403.869 119.699 409.334C119.103 410.063 118.213 410.41 117.341 410.344ZM158.145 371.307C157.371 371.25 156.627 370.87 156.125 370.202C155.206 368.972 155.458 367.231 156.686 366.313C162.479 361.98 168.552 357.864 174.737 354.077C176.047 353.277 177.756 353.687 178.558 354.995C179.36 356.301 178.949 358.011 177.64 358.814C171.601 362.512 165.671 366.533 160.014 370.762C159.455 371.18 158.79 371.356 158.145 371.307ZM207.142 343.24C206.134 343.165 205.204 342.543 204.786 341.546C204.19 340.134 204.854 338.505 206.269 337.909C212.945 335.099 219.834 332.57 226.745 330.384C228.212 329.92 229.769 330.735 230.231 332.198C230.695 333.66 229.883 335.221 228.42 335.683C221.671 337.815 214.944 340.286 208.425 343.031C208.004 343.207 207.567 343.272 207.142 343.24ZM261.459 327.75C260.205 327.657 259.132 326.714 258.925 325.418C258.683 323.904 259.715 322.48 261.231 322.239C268.39 321.095 275.687 320.271 282.916 319.787C284.434 319.694 285.77 320.843 285.873 322.375C285.976 323.906 284.817 325.228 283.286 325.331C276.226 325.803 269.099 326.606 262.107 327.722C261.888 327.758 261.672 327.766 261.459 327.75ZM339.301 328.459C339.206 328.452 339.11 328.439 339.015 328.424C332.038 327.172 324.93 326.236 317.889 325.642C316.36 325.512 315.225 324.171 315.354 322.641C315.482 321.122 316.812 319.992 318.33 320.105C318.338 320.105 318.347 320.106 318.356 320.107C325.569 320.716 332.849 321.675 339.995 322.954C341.505 323.227 342.51 324.67 342.239 326.179C341.986 327.593 340.704 328.563 339.301 328.459Z" fill="white"/>
<path d="M383.759 341.079C383.486 341.059 383.212 340.997 382.943 340.893C379.568 339.558 376.103 338.285 372.645 337.108C371.193 336.613 370.417 335.035 370.911 333.584C371.405 332.133 372.988 331.34 374.437 331.851C377.978 333.056 381.528 334.36 384.986 335.725C386.413 336.289 387.113 337.902 386.55 339.329C386.09 340.488 384.94 341.167 383.759 341.079Z" fill="white"/>
<path d="M384.657 398.369C383.674 397.685 382.365 397.699 381.398 398.405L353.81 418.539C338.984 412.653 323.113 409.087 306.72 408.22L290.076 378.427C289.492 377.382 288.309 376.823 287.131 377.034L246.801 384.255C245.622 384.467 244.708 385.402 244.523 386.584L239.259 420.3C224.186 426.802 210.54 435.652 198.681 446.317L165.816 437.01C164.664 436.683 163.433 437.124 162.749 438.106L139.339 471.72C138.655 472.704 138.67 474.011 139.376 474.977L159.516 502.557C153.628 517.377 150.062 533.242 149.195 549.63L119.391 566.268C118.345 566.852 117.785 568.034 117.997 569.212L125.221 609.528C125.432 610.706 126.368 611.621 127.551 611.805L161.279 617.067C167.783 632.135 176.636 645.776 187.305 657.631L177.993 690.484C177.668 691.635 178.108 692.867 179.09 693.551L212.716 716.952C213.699 717.636 215.008 717.621 215.975 716.915L243.563 696.782C258.388 702.669 274.26 706.234 290.653 707.101L307.297 736.894C307.881 737.939 309.063 738.498 310.242 738.288L350.573 731.066C351.751 730.855 352.666 729.919 352.85 728.737L358.114 695.02C373.187 688.52 386.833 679.668 398.692 669.003L431.556 678.311C432.708 678.638 433.94 678.197 434.625 677.215L458.034 643.601C458.717 642.618 458.703 641.31 457.997 640.343L437.857 612.765C443.746 597.945 447.312 582.079 448.179 565.692L477.983 549.053C479.028 548.47 479.588 547.288 479.377 546.11L472.152 505.794C471.941 504.616 471.006 503.701 469.823 503.516L436.095 498.255C429.592 483.187 420.737 469.546 410.069 457.69L419.38 424.837C419.707 423.685 419.267 422.454 418.284 421.77L384.657 398.369Z" fill="url(#paint1_linear)"/>
<path opacity="0.64" d="M295.721 598.104C291.885 597.818 288.068 596.978 284.368 595.584C274.235 591.76 266.199 584.221 261.738 574.355C257.277 564.488 256.925 553.475 260.749 543.346C264.573 533.216 272.114 525.184 281.985 520.722C291.853 516.263 302.871 515.916 313.004 519.735C323.137 523.559 331.175 531.098 335.636 540.964C340.098 550.831 340.448 561.843 336.624 571.973C332.799 582.103 325.258 590.135 315.388 594.597C309.122 597.429 302.392 598.602 295.721 598.104ZM301.041 525.529C295.742 525.133 290.396 526.067 285.417 528.318C269.232 535.63 262.017 554.743 269.333 570.924C272.876 578.761 279.262 584.751 287.312 587.789C295.364 590.827 304.115 590.549 311.955 587.003C319.795 583.462 325.786 577.079 328.826 569.031C331.863 560.983 331.584 552.234 328.041 544.397C324.495 536.56 318.111 530.57 310.06 527.532C307.121 526.423 304.088 525.756 301.041 525.529Z" fill="url(#paint2_linear)"/>
<path opacity="0.64" d="M290.4 661.152C272.246 659.798 254.715 653.615 239.382 642.942C216.796 627.224 201.685 603.654 196.832 576.576C195.272 567.875 194.833 559.147 195.475 550.558C196.831 532.413 203.018 514.893 213.69 499.567C229.414 476.989 252.993 461.882 280.083 457.03C280.79 456.906 281.498 456.785 282.207 456.674C288.034 455.754 293.925 455.332 299.773 455.412C300.503 455.42 301.232 455.439 301.96 455.463L301.667 463.792C294.98 463.557 288.212 464.042 281.551 465.234C257.979 469.454 237.299 482.125 222.899 501.073C222.089 502.139 221.299 503.225 220.531 504.329C210.722 518.413 205.036 534.516 203.79 551.192C203.199 559.087 203.604 567.109 205.037 575.104C209.496 599.993 223.385 621.659 244.145 636.104C264.904 650.554 290.05 656.053 314.948 651.592C358.339 643.823 389.563 607.482 392.696 565.435C393.275 557.678 392.896 549.726 391.463 541.723C388.436 524.831 380.903 509.105 369.681 496.242L375.961 490.765C388.178 504.763 396.374 521.877 399.668 540.252C401.228 548.961 401.639 557.612 401.01 566.054C397.601 611.803 363.629 651.341 316.417 659.797C307.717 661.354 298.988 661.793 290.4 661.152Z" fill="url(#paint3_linear)"/>
<path d="M803.601 335.469C802.354 335.376 801.183 334.655 800.575 333.458C798.392 329.173 795.989 324.947 793.428 320.898C792.336 319.172 792.851 316.889 794.579 315.797C796.306 314.708 798.591 315.223 799.684 316.945C802.366 321.185 804.886 325.615 807.17 330.103C808.098 331.925 807.372 334.149 805.55 335.078C804.925 335.394 804.253 335.518 803.601 335.469Z" fill="white"/>
<path d="M672.235 567.6C670.435 567.465 668.957 566.029 668.825 564.175C668.678 562.136 670.213 560.367 672.251 560.222C679.413 559.71 686.643 558.688 693.742 557.178C696.248 556.648 698.723 556.057 701.171 555.417C703.149 554.895 705.171 556.078 705.691 558.055C706.21 560.032 705.028 562.052 703.05 562.571C700.491 563.245 697.901 563.856 695.28 564.414C687.85 565.993 680.279 567.066 672.78 567.6C672.596 567.616 672.413 567.613 672.235 567.6ZM746.436 543.324C745.307 543.24 744.229 542.642 743.58 541.611C742.488 539.882 743.005 537.598 744.733 536.506C752.975 531.304 760.776 525.282 767.914 518.61C769.406 517.214 771.746 517.291 773.145 518.787C774.541 520.278 774.462 522.62 772.968 524.015C765.491 531.003 757.322 537.308 748.683 542.764C747.987 543.204 747.198 543.381 746.436 543.324ZM800.25 486.81C799.722 486.771 799.195 486.619 798.703 486.339C796.925 485.333 796.3 483.077 797.308 481.298C802.125 472.794 806.161 463.799 809.304 454.565C809.964 452.633 812.056 451.586 814.001 452.257C815.936 452.916 816.969 455.014 816.312 456.95C813.018 466.619 808.791 476.037 803.747 484.945C803.018 486.23 801.634 486.913 800.25 486.81ZM820.983 411.572C819.035 411.427 817.519 409.781 817.562 407.807C817.767 398.074 817.047 388.244 815.421 378.588C815.083 376.571 816.442 374.665 818.457 374.326C820.468 373.969 822.381 375.343 822.72 377.358C824.422 387.472 825.174 397.769 824.961 407.96C824.919 410.004 823.227 411.624 821.185 411.584C821.116 411.583 821.049 411.578 820.983 411.572Z" fill="white"/>
<path d="M623.605 563.572C623.409 563.557 623.208 563.528 623.009 563.481C618.112 562.3 613.223 560.878 608.476 559.252C606.542 558.59 605.512 556.488 606.173 554.552C606.835 552.623 608.938 551.596 610.873 552.251C615.404 553.803 620.069 555.161 624.745 556.286C626.732 556.767 627.954 558.764 627.474 560.749C627.043 562.536 625.382 563.705 623.605 563.572Z" fill="white"/>
<path d="M519.032 481.789C517.794 481.696 516.634 480.986 516.019 479.804C513.712 475.353 511.579 470.727 509.683 466.051C508.915 464.16 509.828 462.001 511.721 461.233C513.613 460.465 515.772 461.38 516.54 463.274C518.35 467.734 520.386 472.149 522.59 476.396C523.531 478.209 522.822 480.441 521.009 481.383C520.377 481.711 519.693 481.838 519.032 481.789Z" fill="white"/>
<path d="M501.634 421.847C499.858 421.714 498.388 420.312 498.228 418.481C497.46 409.737 497.401 400.869 498.054 392.122C498.15 390.843 498.26 389.566 498.387 388.293C498.59 386.261 500.453 384.9 502.435 384.976C504.469 385.178 505.953 386.992 505.751 389.023C505.631 390.238 505.526 391.451 505.435 392.672C504.811 401.023 504.868 409.489 505.599 417.835C505.779 419.87 504.273 421.663 502.236 421.844C502.034 421.862 501.831 421.861 501.634 421.847ZM513.579 346.019C513.187 345.99 512.796 345.899 512.415 345.737C510.531 344.944 509.65 342.774 510.445 340.891C514.352 331.638 519.142 322.693 524.679 314.296C525.804 312.594 528.097 312.125 529.805 313.248C531.511 314.371 531.983 316.667 530.857 318.372C525.568 326.385 520.994 334.934 517.264 343.769C516.629 345.269 515.119 346.134 513.579 346.019ZM559.464 284.479C558.493 284.407 557.55 283.952 556.882 283.142C555.583 281.563 555.809 279.233 557.389 277.935C565.149 271.551 573.554 265.854 582.37 261.002C584.159 260.02 586.41 260.673 587.396 262.46C588.38 264.251 587.728 266.499 585.937 267.484C577.521 272.116 569.499 277.552 562.09 283.646C561.325 284.277 560.381 284.547 559.464 284.479ZM628.757 251.444C627.15 251.324 625.751 250.159 625.409 248.503C624.996 246.502 626.286 244.544 628.288 244.132C638.177 242.095 648.267 240.964 658.277 240.769C660.364 240.646 662.009 242.348 662.05 244.394C662.089 246.436 660.467 248.123 658.424 248.163C648.863 248.351 639.227 249.432 629.779 251.379C629.435 251.452 629.092 251.469 628.757 251.444Z" fill="white"/>
<path d="M719.608 259.249C719.244 259.222 718.879 259.14 718.521 259.001C714.056 257.237 709.458 255.662 704.852 254.326C702.891 253.756 701.762 251.701 702.332 249.741C702.902 247.78 704.951 246.646 706.919 247.221C711.743 248.624 716.563 250.27 721.242 252.119C723.142 252.87 724.075 255.018 723.322 256.918C722.713 258.463 721.179 259.366 719.608 259.249Z" fill="white"/>
<path d="M720.354 296.646C719.682 296.179 718.786 296.188 718.125 296.671L699.252 310.444C689.11 306.417 678.253 303.978 667.038 303.386L655.652 283.004C655.253 282.29 654.444 281.907 653.637 282.051L626.048 286.991C625.241 287.136 624.616 287.776 624.489 288.584L620.889 311.649C610.577 316.098 601.242 322.152 593.129 329.448L570.647 323.081C569.859 322.858 569.016 323.158 568.548 323.831L552.534 346.826C552.066 347.499 552.076 348.393 552.559 349.054L566.337 367.921C562.308 378.06 559.869 388.913 559.276 400.124L538.887 411.506C538.172 411.905 537.789 412.714 537.933 413.52L542.876 441.1C543.02 441.906 543.66 442.532 544.47 442.658L567.543 446.257C571.992 456.565 578.048 465.897 585.348 474.007L578.977 496.481C578.755 497.269 579.056 498.112 579.728 498.579L602.731 514.588C603.404 515.056 604.299 515.046 604.96 514.563L623.834 500.79C633.975 504.817 644.833 507.255 656.047 507.849L667.433 528.231C667.833 528.945 668.642 529.328 669.448 529.184L697.039 524.243C697.845 524.099 698.471 523.458 698.597 522.65L702.198 499.585C712.509 495.138 721.845 489.082 729.957 481.786L752.439 488.154C753.227 488.378 754.071 488.076 754.539 487.404L770.553 464.409C771.021 463.737 771.011 462.842 770.528 462.181L756.75 443.314C760.778 433.176 763.218 422.322 763.811 411.111L784.2 399.729C784.915 399.33 785.298 398.521 785.154 397.715L780.211 370.135C780.067 369.329 779.427 368.703 778.617 368.577L755.544 364.978C751.095 354.67 745.038 345.338 737.74 337.228L744.109 314.753C744.333 313.966 744.031 313.123 743.359 312.655L720.354 296.646Z" fill="url(#paint4_linear)"/>
<path opacity="0.64" d="M659.328 435.958C648.566 435.155 638.554 428.652 633.806 418.151C626.892 402.863 633.711 384.803 649.003 377.889H649.005C664.298 370.981 682.368 377.799 689.278 393.083C696.192 408.371 689.373 426.431 674.081 433.346C669.292 435.506 664.233 436.324 659.328 435.958ZM653.578 388.003C643.862 392.392 639.53 403.867 643.921 413.581C648.314 423.29 659.789 427.624 669.508 423.231C679.223 418.841 683.555 407.366 679.164 397.652C674.772 387.947 663.295 383.61 653.578 388.003Z" fill="url(#paint5_linear)"/>
<path opacity="0.64" d="M655.668 479.107C642.772 478.148 630.321 473.752 619.429 466.173C603.386 455.007 592.652 438.267 589.206 419.033C588.099 412.853 587.786 406.654 588.241 400.552C589.206 387.666 593.599 375.221 601.181 364.337C612.35 348.297 629.098 337.568 648.34 334.121C653.478 333.2 658.706 332.826 663.878 333.009L663.485 344.101C659.101 343.944 654.664 344.261 650.299 345.044C634.685 347.842 621.009 356.29 611.558 368.922C611.417 369.111 611.276 369.3 611.136 369.492C610.85 369.884 610.569 370.276 610.291 370.675C603.861 379.911 600.132 390.467 599.315 401.4C598.927 406.573 599.194 411.835 600.133 417.074C603.058 433.394 612.164 447.596 625.773 457.066C639.384 466.544 655.869 470.157 672.19 467.22C688.513 464.298 702.72 455.197 712.195 441.592C718.625 432.357 722.354 421.8 723.171 410.867C723.558 405.694 723.292 400.433 722.353 395.193C720.366 384.116 715.431 373.804 708.076 365.377L716.44 358.082C725.118 368.025 730.939 380.178 733.28 393.234C734.387 399.412 734.7 405.612 734.244 411.715C733.28 424.6 728.886 437.045 721.305 447.929C710.136 463.969 693.388 474.698 674.146 478.146C667.969 479.249 661.767 479.562 655.668 479.107Z" fill="url(#paint6_linear)"/>
<path d="M561.127 1077.94C464.931 1056.74 537.399 914.083 540.814 908.56L368.422 969.074C368.422 969.074 353.026 1052.01 460.304 1128.33C487.446 1147.64 514.906 1155.96 540.797 1157.66C539.027 1124.37 548.89 1097.76 561.127 1077.94Z" fill="url(#paint7_linear)"/>
<path d="M756.935 1084.51C728.669 1049.98 681.768 1063.12 681.768 1063.12C625.876 1080.53 587.284 1083.71 561.127 1077.94C548.89 1097.76 539.027 1124.37 540.796 1157.66C596.814 1161.33 645.453 1133.89 667.443 1118.96C675.359 1113.59 686.171 1115.34 691.772 1123.09C697.462 1130.97 702.329 1140.93 698.661 1148.91C691.426 1164.65 709.046 1175.32 712.186 1169.76C715.327 1164.2 717.426 1126.54 717.426 1126.54C717.426 1126.54 744.708 1175.83 755.425 1194.84C766.142 1213.85 789.107 1204.42 789.107 1204.42C789.107 1204.42 785.2 1119.04 756.935 1084.51Z" fill="url(#paint8_linear)"/>
<path d="M177.413 715.568C177.413 715.568 298.457 620.246 615.926 755.829C615.926 755.829 650.26 793.687 638.563 839.824C626.866 885.961 461.531 1142.66 462.33 1257.79C462.33 1257.79 342.873 1339.59 176.288 1278.06C176.288 1278.06 101.306 979.06 177.413 715.568Z" fill="url(#paint9_linear)"/>
<path d="M434.25 586.692L390.815 688.442C386.502 698.544 388.355 710.286 395.782 718.381C410.791 734.741 441.238 756.026 489.445 737.652C503.785 732.186 514.175 719.507 516.683 704.371L535.161 592.857L434.25 586.692Z" fill="url(#paint10_linear)"/>
<path d="M174.46 1097.45C139.424 1037.29 258.186 845.198 258.186 845.198L177.412 715.568C177.412 715.568 -102.704 1050.01 41.0186 1210.33C61.6224 1233.31 84.0439 1247.06 107.333 1253.81C113.15 1170.06 147.661 1122.27 174.46 1097.45Z" fill="url(#paint11_linear)"/>
<path d="M171.565 1097.38C169.852 1097.88 167.951 1097.18 167.012 1095.57C131.187 1034.05 245.896 847.153 250.794 839.225C251.946 837.365 254.389 836.781 256.266 837.932C258.133 839.087 258.709 841.538 257.559 843.402C256.382 845.302 140.438 1034.14 173.882 1091.57C174.986 1093.47 174.343 1095.9 172.446 1097C172.165 1097.17 171.867 1097.29 171.565 1097.38Z" fill="url(#paint12_linear)"/>
<path d="M456.087 1090.83C434.594 1096.78 414.598 1107.47 393.004 1112.96C369.026 1119.06 345.321 1126.23 321.173 1131.67C283.607 1140.12 234.182 1149.81 201.191 1124C198.408 1121.83 176.037 1096.54 174.46 1097.45C114.557 1132.05 102.908 1212.9 102.908 1252.12C212.123 1311.82 383.884 1195.57 430.153 1161.6C437.764 1156.01 447.188 1153.59 456.545 1154.87C475.464 1157.46 508.077 1160.95 525.274 1157.08C550.433 1151.43 593.081 1238.59 632.401 1208.13C632.402 1208.13 586.462 1054.69 456.087 1090.83Z" fill="url(#paint13_linear)"/>
<path d="M575.013 442.875C575.013 442.875 602.442 531.674 599.959 576.4C597.476 621.126 603.839 651.036 551.427 654.255C499.015 657.473 458.56 627.041 440.037 580.148C440.037 580.148 410.885 507.823 422.25 480.801C433.615 453.781 575.013 442.875 575.013 442.875Z" fill="url(#paint14_linear)"/>
<path d="M461.158 550.272L467.657 550.997C467.657 550.997 447.003 493.1 471.61 486.077C496.218 479.053 591.546 470.445 615.345 439.626C638.288 409.915 625.592 366.816 601.009 352.411C599.454 351.499 597.439 352.054 596.424 353.544L593.83 357.358C592.053 359.971 587.998 359.093 587.462 355.979C586.953 353.026 583.164 351.972 581.309 354.324C574.049 363.525 555.587 377.744 509.959 381.007C445.216 385.638 400.414 406.626 394.493 450.338C394.118 453.107 390.978 454.306 388.767 452.597C384.402 449.222 377.057 447.047 366.102 454.35C347.05 467.049 349.939 505.824 384.638 541.324C386.287 543.011 385.956 545.842 383.849 546.901C376.423 550.634 364.91 560.203 390.055 577.472C415.776 595.138 432.141 595.349 438.424 594.467C440.115 594.231 441.387 592.856 441.472 591.152L443.405 552.046C443.504 550.023 445.291 548.503 447.303 548.728L461.158 550.272Z" fill="url(#paint15_linear)"/>
<path d="M461.848 558.576C461.848 558.576 453.815 502.91 427.86 515.373C401.905 527.835 433.687 577.39 452.967 581.59L461.848 558.576Z" fill="url(#paint16_linear)"/>
<path d="M376.657 1259.5C376.994 1259.51 377.332 1259.51 377.671 1259.5L818.416 1252.69C829.311 1252.52 837.97 1244 837.756 1233.66C837.543 1223.32 828.502 1214.9 817.639 1215.25L376.894 1222.06C365.998 1222.23 357.34 1230.75 357.553 1241.09C357.762 1251.1 366.223 1259.16 376.657 1259.5Z" fill="url(#paint17_linear)"/>
<path d="M548.215 614.457C469.688 621.115 405.441 559.648 404.988 558.725V544.872C405.423 545.754 473.119 614.066 547.762 607.737L548.215 614.457Z" fill="url(#paint18_linear)"/>
<path d="M580.226 611.052C580.226 616.276 576.454 620.51 571.799 620.51H549.328C544.675 620.51 540.902 616.276 540.902 611.052C540.902 605.828 544.675 601.593 549.328 601.593H571.799C576.454 601.594 580.226 605.828 580.226 611.052Z" fill="url(#paint19_linear)"/>
<path d="M445.108 475.165C445.108 475.165 427.174 379.512 537.793 378.975C539.325 378.967 539.58 376.773 538.087 376.429C507.784 369.448 419.827 359.112 418.501 473.898C435.356 479.965 445.108 475.165 445.108 475.165Z" fill="url(#paint20_linear)"/>
<path d="M424.837 463.496C381.669 472.254 386.975 526.826 386.975 526.826C383.865 566.43 395.428 586.061 410.245 595.416C420.367 601.808 433.111 602.399 443.799 597.008C454.485 591.617 461.564 581.017 462.446 569.082C463.243 558.304 464.156 548.059 464.956 544.42C466.894 535.604 468.006 454.737 424.837 463.496Z" fill="url(#paint21_linear)"/>
<path d="M428.803 477.295C419.841 475.738 411.003 480.498 407.398 488.847C381.599 548.593 413.275 587.458 428.826 588.269C445.217 589.122 444.884 510.295 441.405 490.087C439.946 481.618 434.564 478.297 428.803 477.295Z" fill="url(#paint22_linear)"/>
<path d="M23.0621 1274.56C22.3268 1269.12 23.3279 1263.49 25.7919 1259.22C28.2559 1254.94 31.9253 1252.46 35.7975 1252.46H1347.44C1352.53 1252.46 1357.27 1256.18 1360.02 1262.32C1362.76 1268.46 1363.13 1276.18 1360.99 1282.8L1346.78 1326.83C1343.52 1336.92 1336.47 1343.37 1328.71 1343.37H44.7977C37.5785 1343.37 31.3739 1336.05 30.003 1325.9L23.0621 1274.56Z" fill="url(#paint23_linear)"/>
<path d="M1328.71 1345H44.7979C36.7702 1345 29.8715 1337.06 28.3921 1326.12L21.4508 1274.78C20.6661 1268.97 21.7349 1263 24.3844 1258.41C27.1543 1253.6 31.3146 1250.84 35.7977 1250.84H1347.44C1353.22 1250.84 1358.47 1254.88 1361.5 1261.66C1364.42 1268.19 1364.8 1276.28 1362.54 1283.3L1348.32 1327.33C1344.86 1338.07 1337.16 1345 1328.71 1345ZM24.6729 1274.34L31.6142 1325.68C32.8719 1334.99 38.4166 1341.75 44.7984 1341.75H1328.71C1335.72 1341.75 1342.21 1335.7 1345.23 1326.34L1359.45 1282.3C1361.47 1276.02 1361.13 1268.8 1358.53 1262.98C1356.04 1257.41 1351.9 1254.09 1347.44 1254.09H35.7977C32.5088 1254.09 29.3748 1256.25 27.2008 1260.03C24.9028 1264.01 23.9816 1269.23 24.6729 1274.34Z" fill="white"/>
<path d="M716.648 752.093C709.239 812.611 675.909 1058.49 666.37 1128.74C665.028 1138.62 672.878 1147.31 682.848 1147.03L1248.24 1130.85C1255.64 1130.64 1261.95 1125.43 1263.56 1118.21L1351.51 722.256C1353.83 711.789 1345.5 702.002 1334.79 702.63L731.741 737.939C723.944 738.395 717.596 744.343 716.648 752.093Z" fill="url(#paint24_linear)"/>
<path d="M682.381 1148.66C677.326 1148.66 672.525 1146.53 669.141 1142.76C665.653 1138.89 664.056 1133.7 664.759 1128.52C674.684 1055.44 707.643 812.281 715.035 751.896C716.079 743.369 723.064 736.819 731.647 736.318L1334.69 701.008C1340.31 700.669 1345.62 702.947 1349.27 707.23C1352.92 711.512 1354.31 717.116 1353.09 722.609L1265.14 1118.56C1263.37 1126.52 1256.44 1132.24 1248.29 1132.48L682.895 1148.65C682.723 1148.66 682.551 1148.66 682.381 1148.66ZM718.26 752.29C710.865 812.696 677.905 1055.87 667.978 1128.96C667.405 1133.19 668.709 1137.43 671.558 1140.59C674.417 1143.77 678.502 1145.53 682.801 1145.4L1248.19 1129.23C1254.86 1129.04 1260.52 1124.36 1261.97 1117.86L1349.92 721.905C1350.92 717.417 1349.78 712.835 1346.8 709.336C1343.82 705.838 1339.47 703.975 1334.88 704.251L731.836 739.561C724.823 739.97 719.113 745.324 718.26 752.29Z" fill="white"/>
<path d="M943.915 1000.4L860.353 1237.49L1054.66 1241.61L1070.83 1001.82C1071.59 990.568 1062.26 981.226 1051 981.973L960.261 987.996C952.822 988.491 946.392 993.368 943.915 1000.4Z" fill="url(#paint25_linear)"/>
<path d="M1056.17 1243.26L1054.62 1243.23L858.074 1239.07L942.382 999.859C945.08 992.206 952.056 986.914 960.154 986.376L1050.89 980.353C1056.72 979.953 1062.44 982.115 1066.57 986.249C1070.71 990.385 1072.85 996.099 1072.46 1001.93L1056.17 1243.26ZM862.631 1235.91L1053.14 1239.95L1069.21 1001.71C1069.54 996.815 1067.74 992.017 1064.27 988.546C1060.81 985.074 1056.01 983.266 1051.11 983.594L960.369 989.618C953.569 990.068 947.711 994.512 945.447 1000.94L862.631 1235.91Z" fill="white"/>
<path d="M781.58 1240.87C779.439 1247.39 784.3 1254.1 791.169 1254.1H1095.46C1101.03 1254.1 1105.55 1249.58 1105.55 1244.01V1230.97C1105.55 1225.22 1100.76 1220.64 1095.03 1220.89L790.737 1233.93C786.538 1234.11 782.891 1236.88 781.58 1240.87Z" fill="url(#paint26_linear)"/>
<path d="M1095.46 1255.73H791.169C787.368 1255.73 783.909 1253.96 781.679 1250.88C779.45 1247.81 778.851 1243.97 780.036 1240.36C781.549 1235.75 785.821 1232.52 790.667 1232.31L1094.95 1219.26C1098.18 1219.12 1101.23 1220.28 1103.56 1222.51C1105.89 1224.74 1107.17 1227.74 1107.17 1230.96V1244.01C1107.17 1250.47 1101.92 1255.73 1095.46 1255.73ZM1095.47 1222.5C1095.34 1222.5 1095.22 1222.51 1095.09 1222.51L790.806 1235.56C787.305 1235.71 784.218 1238.04 783.125 1241.37C782.269 1243.98 782.701 1246.75 784.313 1248.98C785.923 1251.2 788.423 1252.48 791.169 1252.48H1095.46C1100.13 1252.48 1103.93 1248.68 1103.93 1244.01V1230.97C1103.93 1228.64 1103 1226.47 1101.32 1224.86C1099.72 1223.33 1097.66 1222.5 1095.47 1222.5Z" fill="white"/>
<path d="M708.106 1002.23L704.094 1001.72L731.875 782.722C733.597 769.134 744.769 758.681 758.44 757.855L1279.57 726.395L1279.81 730.428L758.685 761.889C746.952 762.595 737.362 771.57 735.886 783.227L708.106 1002.23Z" fill="white"/>
<path d="M696.136 1064.17L690.156 1111.59L694.166 1112.09L700.147 1064.68L696.136 1064.17Z" fill="white"/>
<path d="M888.551 170.429V292.36C888.551 306.847 899.939 318.778 914.414 319.457L1066.95 326.622C1082.42 327.348 1095.36 315.005 1095.36 299.524V170.429C1095.36 155.447 1083.21 143.301 1068.22 143.301H915.689C900.701 143.301 888.551 155.447 888.551 170.429Z" fill="url(#paint27_linear)"/>
<path d="M946.767 203.246L940.81 181.242L923.437 171.78L921.122 176.016L936.671 184.405L955.201 252.323L955.774 254.341H1031.38C1038.74 254.341 1045.52 250.728 1049.51 244.543L1052.9 240.07C1056.55 234.421 1058.96 227.926 1058.96 221.2V203.246H946.767V203.246ZM1053.48 221.2C1053.48 226.986 1051.66 232.618 1048.51 237.477L1045.51 242.513C1042.42 247.305 1037.08 250.692 1031.38 250.692H959.483L955.55 236.174L948.093 208.72H1053.48V221.2Z" fill="white"/>
<path d="M1048.77 278.98C1048.77 280.317 1047.68 281.714 1046.33 281.714H957.629C956.284 281.714 954.905 279.614 954.905 278.277V236.463C954.905 236.003 955.178 236.098 955.402 235.731L959.484 250.692H960.382V276.239H1046.33C1047.68 276.239 1048.77 277.636 1048.77 278.98Z" fill="white"/>
<path d="M1002.76 205.676H999.521V251.194H1002.76V205.676Z" fill="white"/>
<path d="M974.157 205.676H970.919V251.194H974.157V205.676Z" fill="white"/>
<path d="M1030.69 205.676H1027.45V251.194H1030.69V205.676Z" fill="white"/>
<path d="M1054.64 219.066H949.323V221.961H1054.64V219.066Z" fill="white"/>
<path d="M1052 234.91H953.92V237.805H1052V234.91Z" fill="white"/>
<path d="M968.99 284.837C963.214 284.837 958.531 289.518 958.531 295.292C958.531 301.067 963.214 305.748 968.99 305.748C974.767 305.748 979.449 301.067 979.449 295.292C979.449 289.518 974.767 284.837 968.99 284.837ZM968.99 301.603C965.504 301.603 962.677 298.777 962.677 295.292C962.677 291.807 965.504 288.982 968.99 288.982C972.477 288.982 975.303 291.807 975.303 295.292C975.303 298.778 972.477 301.603 968.99 301.603Z" fill="white"/>
<path d="M1033.98 284.837C1028.21 284.837 1023.53 289.518 1023.53 295.292C1023.53 301.067 1028.21 305.748 1033.98 305.748C1039.76 305.748 1044.44 301.067 1044.44 295.292C1044.44 289.518 1039.76 284.837 1033.98 284.837ZM1033.98 301.603C1030.5 301.603 1027.67 298.777 1027.67 295.292C1027.67 291.807 1030.5 288.982 1033.98 288.982C1037.47 288.982 1040.3 291.807 1040.3 295.292C1040.3 298.778 1037.47 301.603 1033.98 301.603Z" fill="white"/>
<path d="M934.213 175.999C934.213 178.712 932.013 180.911 929.299 180.911H912.949C910.235 180.911 908.035 178.712 908.035 175.999C908.035 173.286 910.235 171.087 912.949 171.087H929.299C932.013 171.087 934.213 173.286 934.213 175.999Z" fill="white"/>
<path d="M557.897 29.4649V160.259C557.897 175.799 570.112 188.596 585.64 189.326L749.258 197.011C765.853 197.79 779.734 184.551 779.734 167.944V29.4649C779.734 13.3939 766.701 0.365852 750.624 0.365852H587.006C570.93 0.365852 557.897 13.3939 557.897 29.4649Z" fill="url(#paint28_linear)"/>
<path d="M725.455 157.885H612.7C604.25 157.885 597.376 151.013 597.376 142.566V60.1376C597.376 51.6908 604.25 44.8182 612.7 44.8182H725.455C733.904 44.8182 740.779 51.6908 740.779 60.1376V142.566C740.779 151.013 733.904 157.885 725.455 157.885ZM612.7 54.9137C609.819 54.9137 607.475 57.2569 607.475 60.1381V142.567C607.475 145.447 609.819 147.791 612.7 147.791H725.455C728.336 147.791 730.68 145.447 730.68 142.567V60.1376C730.68 57.2569 728.336 54.9132 725.455 54.9132H612.7V54.9137Z" fill="white"/>
<path d="M669.176 103.171C668.154 103.171 667.13 102.861 666.255 102.24L603.071 57.449C600.797 55.837 600.261 52.6862 601.874 50.4118C603.489 48.1384 606.641 47.6032 608.914 49.2151L669.175 91.9335L728.649 49.7048C730.922 48.09 734.074 48.6213 735.69 50.8967C737.305 53.1702 736.771 56.321 734.497 57.9348L672.101 102.238C671.225 102.86 670.201 103.171 669.176 103.171Z" fill="white"/>
<path d="M606.772 154.36L605.309 144.371L605.993 149.372L601.762 146.623C602.932 144.743 625.72 104.901 640.752 78.5788C642.132 76.1582 645.213 75.3104 647.639 76.6978C650.061 78.0789 650.904 81.1629 649.522 83.583C649.522 83.583 639.774 100.651 630.008 117.723C625.123 126.26 620.234 134.799 616.556 141.204C609.22 153.977 609.22 153.977 606.772 154.36Z" fill="white"/>
<path d="M731.195 154.358C728.754 153.971 728.754 153.971 721.423 141.205C717.745 134.799 712.855 126.261 707.971 117.723C698.204 100.652 688.457 83.5835 688.457 83.5835C687.076 81.1634 687.918 78.0794 690.34 76.6973C692.76 75.3153 695.845 76.1592 697.229 78.5793C712.258 104.898 735.044 144.739 736.217 146.622L731.987 149.373L731.195 154.358Z" fill="white"/>
<path d="M1077.94 435.372V550.416C1077.94 564.084 1088.69 575.341 1102.35 575.983L1246.26 582.742C1260.86 583.428 1273.07 571.782 1273.07 557.175V435.372C1273.07 421.236 1261.6 409.777 1247.46 409.777H1103.55C1089.41 409.777 1077.94 421.236 1077.94 435.372Z" fill="url(#paint29_linear)"/>
<path d="M1114.77 573.615C1112.68 573.615 1110.77 572.98 1109.32 571.65L1105.15 567.831C1103.14 565.982 1102.3 563.141 1102.8 559.834C1103.26 556.71 1104.89 553.505 1107.36 550.807L1110.14 547.781C1110.33 547.567 1110.53 547.358 1110.74 547.153L1162.64 495.265C1163.14 494.766 1163.95 494.766 1164.45 495.265C1164.95 495.764 1164.95 496.573 1164.45 497.072L1112.55 548.959C1112.37 549.138 1112.19 549.321 1112.02 549.508L1109.24 552.535C1107.11 554.862 1105.72 557.588 1105.32 560.214C1104.96 562.655 1105.51 564.691 1106.88 565.949L1111.05 569.767C1113.97 572.451 1120 570.844 1124.21 566.257L1126.99 563.231C1127.16 563.044 1127.33 562.853 1127.49 562.66L1168.94 513.375C1169.39 512.835 1170.2 512.763 1170.74 513.219C1171.28 513.673 1171.35 514.478 1170.9 515.019L1129.45 564.304C1129.26 564.526 1129.07 564.745 1128.87 564.959L1126.09 567.985C1122.75 571.627 1118.47 573.615 1114.77 573.615ZM1116.03 565.474C1114.61 565.474 1113.34 565.047 1112.36 564.152C1109.47 561.504 1110.45 555.907 1114.57 551.409C1116.46 549.351 1118.73 547.847 1120.97 547.173C1123.44 546.428 1125.61 546.761 1127.08 548.11C1128.55 549.458 1129.07 551.59 1128.54 554.115C1128.06 556.402 1126.76 558.795 1124.87 560.853C1122.14 563.832 1118.81 565.474 1116.03 565.474ZM1123.43 549.342C1122.78 549.342 1122.15 549.486 1121.71 549.62C1119.9 550.164 1118.04 551.412 1116.46 553.137C1113.46 556.406 1112.35 560.674 1114.09 562.269C1115.64 563.687 1119.67 562.743 1122.99 559.126V559.126C1124.57 557.402 1125.65 555.436 1126.04 553.592C1126.23 552.662 1126.4 550.956 1125.35 549.994C1124.82 549.501 1124.11 549.342 1123.43 549.342ZM1188.07 493.896C1187.78 493.896 1187.48 493.798 1187.24 493.596C1186.7 493.142 1186.63 492.337 1187.09 491.796L1202.04 474.018L1202.98 474.588C1214.62 481.676 1228.59 479.74 1237.74 469.771C1243.66 463.319 1246.54 454.733 1245.63 446.214C1245.51 445.068 1244.78 444.166 1243.67 443.801C1242.79 443.511 1241.51 443.569 1240.57 444.602L1224.45 462.162C1223.05 463.694 1220.97 464.502 1218.9 464.324L1210.23 463.577C1207.18 463.315 1204.69 461.026 1204.16 458.012L1202.67 449.444C1202.32 447.396 1202.94 445.259 1204.35 443.727L1220.46 426.167C1221.41 425.134 1221.36 423.856 1220.99 423.005C1220.53 421.933 1219.57 421.28 1218.42 421.257C1209.87 421.098 1201.54 424.698 1195.62 431.151C1186.47 441.12 1185.75 455.199 1193.81 466.186L1194.46 467.07L1175.09 486.436C1174.59 486.935 1173.78 486.935 1173.28 486.436C1172.78 485.937 1172.78 485.128 1173.28 484.629L1191.12 466.801C1182.99 454.94 1183.99 440.048 1193.74 429.423C1200.15 422.432 1209.15 418.511 1218.47 418.703C1220.62 418.744 1222.49 420.007 1223.34 421.999C1224.21 424.021 1223.83 426.28 1222.34 427.894L1206.23 445.454C1205.36 446.406 1204.97 447.733 1205.19 449.005L1206.68 457.573C1207.01 459.445 1208.56 460.867 1210.45 461.03L1219.12 461.777C1220.41 461.89 1221.7 461.386 1222.57 460.434L1238.68 442.873C1240.16 441.26 1242.38 440.685 1244.47 441.373C1246.53 442.051 1247.95 443.803 1248.18 445.943C1249.16 455.192 1246.04 464.506 1239.62 471.498C1229.87 482.122 1215.12 484.4 1202.6 477.326L1189.04 493.439C1188.79 493.742 1188.43 493.896 1188.07 493.896Z" fill="white"/>
<path d="M1226.97 574.277C1226.63 574.277 1226.29 574.262 1225.95 574.234C1222.71 573.96 1219.8 572.426 1217.75 569.912L1169.58 510.961C1167.5 508.413 1167.81 504.723 1170.29 502.56L1179.79 494.275C1182.27 492.113 1185.97 492.305 1188.21 494.712L1240.11 550.41C1242.32 552.785 1243.45 555.878 1243.28 559.119C1243.11 562.359 1241.67 565.319 1239.23 567.452L1234.76 571.348C1232.57 573.256 1229.84 574.277 1226.97 574.277ZM1182.03 496.842L1172.53 505.127C1171.45 506.074 1171.31 507.69 1172.22 508.805L1220.39 567.757C1221.85 569.549 1223.93 570.644 1226.24 570.839C1228.54 571.03 1230.77 570.303 1232.52 568.781L1236.98 564.885C1238.73 563.364 1239.76 561.254 1239.88 558.942C1239.99 556.631 1239.19 554.426 1237.61 552.733L1185.72 497.034C1184.74 495.981 1183.12 495.895 1182.03 496.842Z" fill="white"/>
<path d="M1172.61 503.614L1130.81 454.735C1130.15 454.717 1129.54 454.508 1129.03 454.12L1116.49 444.505C1116.15 444.24 1115.87 443.91 1115.68 443.523L1110.12 432.53C1109.44 431.183 1109.85 429.466 1111.13 428.353L1114.26 425.622C1115.54 424.509 1117.3 424.33 1118.54 425.188L1128.7 432.192C1129.03 432.424 1129.31 432.72 1129.52 433.073L1137.64 446.521C1138.07 447.231 1138.17 448.085 1137.95 448.922L1181.02 497.285L1172.61 503.614ZM1131.84 452.014L1172.99 500.128L1177.27 496.911L1134.92 449.361L1135.36 448.569C1135.51 448.293 1135.55 448.007 1135.45 447.84L1127.34 434.392C1127.31 434.354 1127.28 434.322 1127.25 434.296L1117.09 427.291C1116.86 427.132 1116.36 427.186 1115.94 427.547L1112.81 430.279C1112.4 430.639 1112.28 431.13 1112.4 431.376L1117.96 442.368C1117.98 442.411 1118.01 442.448 1118.05 442.478L1130.58 452.091C1130.7 452.176 1130.89 452.203 1131.11 452.158L1131.84 452.014Z" fill="white"/>
<path d="M206.438 112.342V249.906C206.438 266.25 219.285 279.71 235.617 280.477L407.704 288.56C425.158 289.379 439.757 275.455 439.757 257.988V112.342C439.757 95.4386 426.05 81.7364 409.141 81.7364H237.054C220.145 81.7364 206.438 95.4391 206.438 112.342Z" fill="url(#paint30_linear)"/>
<path d="M329.47 197.261C329.452 209.486 328.616 221.735 326.47 233.786C325.926 236.797 325.296 239.792 324.545 242.76C323.793 245.726 322.923 248.666 321.859 251.542C320.785 254.409 319.54 257.236 317.851 259.819C317 261.101 316.034 262.329 314.842 263.34C314.246 263.842 313.593 264.287 312.873 264.613C312.155 264.938 311.371 265.142 310.574 265.157C309.779 265.18 308.982 265.024 308.25 264.728C307.515 264.435 306.845 264.009 306.235 263.524C305.015 262.545 304.028 261.33 303.162 260.058C301.442 257.493 300.18 254.673 299.095 251.81C298.017 248.94 297.139 246.001 296.379 243.036C295.621 240.071 294.985 237.076 294.437 234.067C293.343 228.047 292.597 221.969 292.094 215.874C291.594 209.779 291.344 203.664 291.313 197.547C291.299 194.49 291.382 191.433 291.49 188.378C291.604 185.322 291.771 182.27 291.996 179.22C292.446 173.124 293.119 167.039 294.12 161.005C294.622 157.989 295.207 154.986 295.912 152.009C296.618 149.034 297.438 146.081 298.456 143.193C298.968 141.75 299.526 140.323 300.164 138.929C300.802 137.535 301.515 136.172 302.352 134.883C303.192 133.6 304.156 132.376 305.358 131.395C305.959 130.909 306.62 130.486 307.346 130.2C308.068 129.91 308.852 129.762 309.631 129.792C310.412 129.815 311.18 130.01 311.89 130.323C312.6 130.638 313.253 131.067 313.853 131.553C315.051 132.53 316.044 133.725 316.924 134.981C318.673 137.509 319.993 140.296 321.136 143.132C322.27 145.976 323.207 148.894 324.023 151.842C324.836 154.791 325.524 157.774 326.12 160.773C328.477 172.784 329.434 185.034 329.47 197.261ZM328.568 197.261C328.579 191.17 328.349 185.077 327.844 179.007C327.347 172.938 326.593 166.885 325.471 160.9C324.911 157.908 324.258 154.933 323.482 151.99C322.702 149.05 321.802 146.139 320.707 143.303C319.604 140.475 318.324 137.698 316.626 135.188C315.773 133.942 314.811 132.758 313.655 131.796C313.078 131.317 312.451 130.897 311.773 130.587C311.095 130.281 310.366 130.08 309.623 130.061C308.881 130.037 308.14 130.187 307.454 130.47C306.766 130.751 306.134 131.164 305.558 131.641C304.405 132.602 303.47 133.811 302.658 135.083C301.848 136.36 301.158 137.714 300.542 139.101C299.926 140.488 299.387 141.909 298.894 143.347C297.915 146.225 297.131 149.169 296.461 152.137C295.793 155.107 295.242 158.103 294.776 161.112C293.845 167.132 293.24 173.201 292.857 179.281C292.47 185.361 292.337 191.455 292.347 197.547C292.332 203.638 292.534 209.731 292.985 215.805C293.441 221.878 294.137 227.936 295.179 233.935C295.701 236.933 296.311 239.917 297.042 242.869C297.774 245.821 298.624 248.745 299.67 251.595C300.721 254.438 301.95 257.235 303.612 259.754C304.448 261.003 305.4 262.188 306.553 263.127C307.129 263.593 307.756 263.996 308.434 264.272C309.109 264.549 309.835 264.703 310.561 264.678C311.287 264.66 312.003 264.468 312.667 264.161C313.333 263.854 313.947 263.43 314.51 262.947C315.638 261.976 316.569 260.775 317.391 259.516C319.024 256.977 320.235 254.174 321.275 251.326C322.306 248.471 323.146 245.545 323.871 242.591C324.593 239.637 325.197 236.652 325.714 233.653C326.749 227.654 327.437 221.594 327.894 215.521C328.357 209.447 328.57 203.354 328.568 197.261Z" fill="white"/>
<path d="M310.399 266.942C309.471 266.942 308.497 266.749 307.587 266.381C306.751 266.047 305.945 265.569 305.131 264.92C303.911 263.942 302.822 262.717 301.695 261.063C300.132 258.73 298.78 255.995 297.435 252.443C296.42 249.738 295.512 246.807 294.66 243.48C293.928 240.62 293.284 237.645 292.689 234.387C291.642 228.615 290.868 222.609 290.324 216.021C289.833 210.035 289.569 203.823 289.538 197.556C289.521 194.282 289.618 191.048 289.715 188.315C289.832 185.208 290.002 182.105 290.226 179.09C290.715 172.466 291.415 166.456 292.369 160.713C292.913 157.441 293.507 154.46 294.184 151.595C294.977 148.25 295.827 145.306 296.782 142.6C297.361 140.965 297.939 139.521 298.551 138.187C299.294 136.562 300.05 135.163 300.863 133.91C301.964 132.231 303.034 130.995 304.238 130.014C305.041 129.363 305.865 128.87 306.694 128.543C307.648 128.159 308.688 127.978 309.698 128.012C310.661 128.04 311.645 128.268 312.604 128.693C313.41 129.049 314.183 129.531 314.967 130.166C316.165 131.144 317.246 132.346 318.375 133.956C319.971 136.261 321.369 138.962 322.781 142.464C323.857 145.16 324.821 148.071 325.733 151.366C326.524 154.234 327.219 157.197 327.86 160.426C330.099 171.833 331.206 183.878 331.244 197.254V197.261C331.225 210.721 330.234 222.77 328.216 234.097C327.629 237.353 326.991 240.328 326.265 243.198C325.423 246.52 324.526 249.451 323.523 252.162C322.188 255.722 320.858 258.464 319.333 260.795C318.228 262.462 317.166 263.699 315.988 264.699C315.197 265.364 314.419 265.865 313.605 266.235C312.608 266.684 311.602 266.919 310.604 266.936C310.536 266.94 310.468 266.942 310.399 266.942ZM309.475 131.84C309.029 131.84 308.569 131.935 308.13 132.117C307.657 132.31 307.173 132.611 306.688 133.015C305.813 133.742 305.007 134.705 304.152 136.043C303.457 137.139 302.806 138.378 302.164 139.825C301.616 141.057 301.095 142.398 300.573 143.925C299.696 146.5 298.917 149.317 298.192 152.53C297.566 155.312 297.022 158.208 296.529 161.387C295.657 167.019 295.036 172.91 294.629 179.391C294.275 184.931 294.11 190.869 294.122 197.542C294.106 203.702 294.319 209.798 294.755 215.671C295.237 222.117 295.948 227.991 296.927 233.628C297.476 236.78 298.077 239.663 298.764 242.44C299.556 245.628 300.397 248.421 301.334 250.978C302.538 254.233 303.732 256.71 305.091 258.771C305.966 260.077 306.787 261.025 307.67 261.743C308.157 262.138 308.638 262.434 309.097 262.62C309.587 262.82 310.046 262.892 310.5 262.898C310.962 262.886 311.437 262.766 311.924 262.542C312.39 262.326 312.871 262.006 313.354 261.592C314.223 260.844 315.032 259.874 315.903 258.54C317.234 256.47 318.413 253.98 319.606 250.713C320.532 248.148 321.364 245.349 322.144 242.163C322.821 239.402 323.416 236.518 323.962 233.346C324.926 227.76 325.633 221.885 326.122 215.386C326.569 209.526 326.794 203.43 326.791 197.261V197.257C326.803 191.113 326.562 185.022 326.074 179.154C325.545 172.696 324.776 166.833 323.725 161.228C323.14 158.105 322.499 155.233 321.763 152.444C320.926 149.285 320.038 146.505 319.05 143.946C317.793 140.724 316.555 138.256 315.157 136.187C314.257 134.876 313.418 133.914 312.52 133.165C312.02 132.752 311.519 132.427 311.036 132.207C310.527 131.977 310.034 131.853 309.576 131.842C309.543 131.84 309.509 131.84 309.475 131.84Z" fill="white"/>
<path d="M360.2 197.261C360.158 205.133 359.15 213.009 357.05 220.6C354.913 228.174 351.692 235.461 347.319 242.003C345.133 245.27 342.655 248.345 339.888 251.136C337.121 253.925 334.061 256.429 330.739 258.527C327.414 260.617 323.824 262.289 320.065 263.424C316.307 264.563 312.386 265.155 308.461 265.16C304.536 265.159 300.613 264.57 296.854 263.435C293.093 262.303 289.499 260.633 286.171 258.545C282.846 256.449 279.781 253.948 277.01 251.159C274.238 248.371 271.756 245.296 269.564 242.028C265.182 235.485 261.954 228.196 259.808 220.618C258.752 216.822 257.966 212.951 257.446 209.046C256.929 205.141 256.668 201.202 256.651 197.261C256.67 193.321 256.933 189.382 257.453 185.477C257.976 181.573 258.764 177.703 259.823 173.909C261.975 166.333 265.208 159.048 269.592 152.513C271.785 149.248 274.268 146.177 277.04 143.392C279.811 140.607 282.874 138.108 286.198 136.019C289.525 133.937 293.118 132.279 296.873 131.147C300.625 130.011 304.541 129.419 308.461 129.415C312.382 129.422 316.297 130.018 320.047 131.157C323.799 132.291 327.39 133.953 330.714 136.037C334.035 138.129 337.093 140.63 339.859 143.415C342.627 146.201 345.104 149.274 347.292 152.538C351.668 159.073 354.893 166.355 357.036 173.925C359.138 181.515 360.153 189.389 360.2 197.261ZM359.166 197.261C359.155 189.478 358.189 181.687 356.142 174.174C354.085 166.673 350.986 159.432 346.721 152.919C344.589 149.666 342.169 146.599 339.457 143.812C336.744 141.03 333.748 138.512 330.471 136.419C327.191 134.338 323.648 132.663 319.933 131.53C316.22 130.396 312.343 129.8 308.459 129.787C304.576 129.804 300.7 130.403 296.989 131.539C293.276 132.675 289.736 134.353 286.459 136.436C283.185 138.532 280.194 141.051 277.486 143.835C274.779 146.624 272.363 149.691 270.237 152.944C265.98 159.455 262.888 166.694 260.84 174.192C259.82 177.944 259.082 181.772 258.581 185.627C258.08 189.482 257.832 193.371 257.824 197.261C257.835 201.15 258.085 205.038 258.589 208.893C259.091 212.748 259.833 216.574 260.856 220.325C262.908 227.82 266.006 235.054 270.265 241.559C272.392 244.808 274.808 247.871 277.515 250.657C280.223 253.436 283.212 255.954 286.485 258.042C289.761 260.12 293.3 261.786 297.006 262.921C300.71 264.059 304.58 264.661 308.458 264.681C312.337 264.665 316.207 264.067 319.913 262.931C323.622 261.799 327.163 260.136 330.444 258.06C333.72 255.974 336.714 253.459 339.426 250.68C342.138 247.897 344.559 244.834 346.691 241.584C350.959 235.078 354.063 227.841 356.125 220.343C358.178 212.834 359.15 205.044 359.166 197.261Z" fill="white"/>
<path d="M308.463 266.942C304.38 266.942 300.302 266.336 296.342 265.141C292.512 263.99 288.773 262.278 285.229 260.054C281.88 257.944 278.692 255.376 275.753 252.417C272.98 249.628 270.402 246.467 268.09 243.023C263.74 236.527 260.379 229.152 258.1 221.105C257.031 217.265 256.22 213.291 255.686 209.282C255.165 205.359 254.893 201.318 254.875 197.269C254.896 193.198 255.171 189.157 255.693 185.239C256.229 181.23 257.044 177.256 258.113 173.427C260.4 165.376 263.766 158.006 268.119 151.518C270.426 148.08 273.005 144.923 275.783 142.132C278.727 139.173 281.914 136.608 285.255 134.509C288.776 132.305 292.512 130.601 296.361 129.441C300.311 128.245 304.381 127.637 308.458 127.634C312.544 127.641 316.614 128.253 320.56 129.452C324.403 130.614 328.135 132.32 331.652 134.526C334.992 136.631 338.175 139.197 341.114 142.156C343.887 144.949 346.461 148.106 348.763 151.544C353.111 158.036 356.468 165.402 358.741 173.439C360.838 180.996 361.925 189.004 361.975 197.25V197.271C361.932 205.515 360.849 213.525 358.759 221.077C356.49 229.124 353.138 236.496 348.793 242.995C346.488 246.44 343.915 249.603 341.145 252.393C338.21 255.352 335.026 257.923 331.684 260.035C328.143 262.26 324.406 263.974 320.575 265.13C316.624 266.326 312.549 266.936 308.463 266.942ZM308.455 131.569C304.775 131.585 301.088 132.147 297.508 133.243C294.048 134.303 290.651 135.884 287.41 137.942C284.409 139.862 281.495 142.265 278.757 145.08C276.207 147.706 273.84 150.683 271.721 153.922C267.728 160.03 264.645 167.008 262.554 174.662C261.593 178.201 260.849 181.969 260.343 185.857C259.858 189.584 259.608 193.422 259.6 197.264C259.611 201.106 259.864 204.943 260.35 208.663C260.856 212.544 261.603 216.31 262.569 219.855C264.665 227.505 267.754 234.477 271.75 240.58C273.866 243.816 276.233 246.787 278.787 249.412C281.528 252.225 284.438 254.624 287.439 256.54C290.655 258.579 294.051 260.153 297.525 261.218C301.098 262.316 304.78 262.883 308.469 262.901C312.143 262.885 315.825 262.322 319.397 261.228C322.879 260.164 326.278 258.591 329.499 256.554C332.497 254.645 335.412 252.248 338.16 249.434C340.715 246.81 343.088 243.839 345.211 240.605C349.212 234.504 352.309 227.528 354.416 219.87C356.373 212.704 357.374 205.096 357.39 197.259C357.378 189.425 356.383 181.816 354.43 174.644C352.33 166.986 349.236 160.004 345.238 153.897C343.117 150.661 340.744 147.685 338.187 145.057C335.45 142.25 332.533 139.849 329.518 137.923C326.281 135.87 322.881 134.292 319.418 133.236C315.835 132.141 312.147 131.581 308.455 131.569Z" fill="white"/>
<path d="M248.084 170.393L263.622 170.267L279.161 170.196L310.236 170.138L341.313 170.202L356.851 170.28L372.389 170.416C372.415 170.416 372.434 170.437 372.434 170.462C372.434 170.462 372.414 170.507 372.389 170.507L356.851 170.643L341.313 170.72L310.236 170.784L279.161 170.726L263.622 170.655L248.084 170.529C248.047 170.529 248.017 170.498 248.017 170.498C248.017 170.424 248.047 170.394 248.084 170.393Z" fill="white"/>
<path d="M310.241 172.566L263.615 172.438L247.331 172.303L246.244 171.216L246.243 170.42L246.284 168.68L248.07 168.612L279.151 168.414L310.234 168.357L356.86 168.499L374.164 168.65L374.209 172.242L372.389 172.288L341.321 172.502L310.241 172.566Z" fill="white"/>
<path d="M266.11 144.277C269.787 144.219 273.465 144.193 277.142 144.151L288.174 144.08C291.851 144.049 295.528 144.053 299.205 144.043L310.236 144.022L332.3 144.085L343.332 144.163C347.009 144.209 350.686 144.237 354.363 144.299C354.389 144.3 354.408 144.321 354.408 144.321C354.408 144.371 354.388 144.39 354.363 144.391C350.686 144.454 347.009 144.48 343.332 144.527L332.3 144.605L310.236 144.669L299.205 144.648C295.528 144.639 291.851 144.642 288.174 144.611L277.142 144.539C273.465 144.497 269.787 144.472 266.11 144.414C266.073 144.413 266.043 144.382 266.043 144.344C266.044 144.307 266.074 144.278 266.11 144.277Z" fill="white"/>
<path d="M310.242 146.45L296.343 146.422C293.615 146.419 290.887 146.414 288.16 146.391L273.449 146.282C270.993 146.257 268.538 146.235 266.083 146.194L264.336 146.167L264.268 142.562L266.083 142.496C268.459 142.458 270.835 142.435 273.212 142.411L288.163 142.298C290.751 142.277 293.343 142.271 295.933 142.268L310.234 142.24L347.361 142.427C349.705 142.452 352.049 142.477 354.393 142.517L356.201 142.549L356.12 146.127L354.362 146.172C351.938 146.214 349.481 146.24 347.026 146.266L332.312 146.387L310.242 146.45Z" fill="white"/>
<path d="M242.684 196.509L259.573 196.384L276.461 196.312L310.236 196.254L344.013 196.318L360.901 196.396L377.789 196.532C377.814 196.532 377.834 196.553 377.834 196.578C377.834 196.578 377.814 196.623 377.789 196.624L360.901 196.76L344.013 196.838L310.236 196.901L276.461 196.844L259.573 196.771L242.684 196.646C242.647 196.645 242.616 196.615 242.617 196.577C242.617 196.54 242.647 196.51 242.684 196.509Z" fill="white"/>
<path d="M310.241 198.682L259.565 198.554L240.91 198.414L240.842 194.796L242.672 194.728L276.453 194.531L310.234 194.474L360.908 194.615L378.547 194.756L379.619 195.85L379.55 198.361L377.788 198.406L344.02 198.62L310.241 198.682Z" fill="white"/>
<path d="M248.084 222.626L263.622 222.5L279.161 222.429L310.236 222.371L341.313 222.435L356.851 222.513L372.389 222.648C372.415 222.649 372.434 222.669 372.434 222.669C372.434 222.72 372.414 222.74 372.389 222.74L356.851 222.876L341.313 222.954L310.236 223.018L279.161 222.96L263.622 222.888L248.084 222.763C248.047 222.762 248.017 222.732 248.017 222.694C248.017 222.657 248.047 222.627 248.084 222.626Z" fill="white"/>
<path d="M310.241 224.798L263.615 224.669L247.331 224.539L246.245 223.452L246.243 222.653L246.282 220.912L248.069 220.846L279.152 220.647L310.234 220.59L356.86 220.731L374.164 220.882L374.209 224.476L372.389 224.522L341.321 224.736L310.241 224.798Z" fill="white"/>
<path d="M356.586 249.051H268.334C268.202 249.051 268.095 248.943 268.095 248.811C268.095 248.679 268.202 248.572 268.334 248.572H356.586C356.718 248.572 356.824 248.679 356.824 248.811C356.824 248.943 356.718 249.051 356.586 249.051Z" fill="white"/>
<path d="M356.585 250.83H268.334C267.224 250.83 266.32 249.924 266.32 248.811C266.32 247.698 267.223 246.791 268.334 246.791H356.585C357.696 246.791 358.599 247.698 358.599 248.811C358.599 249.924 357.696 250.83 356.585 250.83Z" fill="white"/>
<path d="M310.231 268.341C270.213 268.341 237.657 236.152 237.657 196.585C237.657 157.019 270.213 124.83 310.231 124.83C350.248 124.83 382.804 157.019 382.804 196.585C382.804 236.152 350.248 268.341 310.231 268.341ZM310.231 131.198C273.725 131.198 244.027 160.531 244.027 196.585C244.027 232.641 273.725 261.974 310.231 261.974C346.735 261.974 376.434 232.641 376.434 196.585C376.434 160.53 346.736 131.198 310.231 131.198Z" fill="white"/>
<path d="M380 138.527H359.161V133.133L366.071 123.355C367.968 120.662 369.27 118.665 369.978 117.363C370.687 116.061 371.21 114.812 371.547 113.617C371.883 112.421 372.052 111.185 372.052 109.91C372.052 108.422 371.72 107.306 371.055 106.561C370.39 105.817 369.527 105.446 368.463 105.446C367.524 105.446 366.647 105.694 365.832 106.189C365.017 106.685 364.024 107.58 362.855 108.873L358.814 104.622C360.675 102.514 362.403 101.07 363.998 100.291C365.592 99.5113 367.32 99.1217 369.181 99.1217C372.317 99.1217 374.767 100.043 376.53 101.885C378.293 103.728 379.175 106.287 379.175 109.564C379.175 111.052 379.015 112.46 378.696 113.789C378.377 115.118 377.895 116.45 377.248 117.788C376.601 119.125 375.79 120.516 374.816 121.96C373.841 123.404 371.325 126.712 367.267 131.884V132.096H379.999V138.527H380Z" fill="white"/>
<path d="M406.793 130.369H402.859V138.527H396.054V130.369H383.375V124.497L395.124 99.6792H402.86V124.391H406.793V130.369H406.793ZM396.054 124.391V116.206L396.187 112.593L396.373 109.138H396.161C395.54 111.069 394.867 112.814 394.141 114.373L389.462 124.391H396.054Z" fill="white"/>
</g>
<defs>
<linearGradient id="paint0_linear" x1="1475.14" y1="1361.27" x2="476.247" y2="486.933" gradientUnits="userSpaceOnUse">
<stop stop-color="#B37CFF"/>
<stop offset="1" stop-color="#F895E7"/>
</linearGradient>
<linearGradient id="paint1_linear" x1="404.536" y1="851.999" x2="221.169" y2="341.749" gradientUnits="userSpaceOnUse">
<stop stop-color="#A737D5"/>
<stop offset="1" stop-color="#EF497A"/>
</linearGradient>
<linearGradient id="paint2_linear" x1="806.081" y1="-308.627" x2="-104.526" y2="1247.16" gradientUnits="userSpaceOnUse">
<stop stop-color="#B37CFF"/>
<stop offset="1" stop-color="#F895E7"/>
</linearGradient>
<linearGradient id="paint3_linear" x1="806.063" y1="-308.639" x2="-104.544" y2="1247.15" gradientUnits="userSpaceOnUse">
<stop stop-color="#B37CFF"/>
<stop offset="1" stop-color="#F895E7"/>
</linearGradient>
<linearGradient id="paint4_linear" x1="361.405" y1="-217.907" x2="722.75" y2="533.3" gradientUnits="userSpaceOnUse">
<stop stop-color="#A737D5"/>
<stop offset="1" stop-color="#EF497A"/>
</linearGradient>
<linearGradient id="paint5_linear" x1="1009.98" y1="-189.282" x2="99.3812" y2="1366.5" gradientUnits="userSpaceOnUse">
<stop stop-color="#B37CFF"/>
<stop offset="1" stop-color="#F895E7"/>
</linearGradient>
<linearGradient id="paint6_linear" x1="1009.99" y1="-189.283" x2="99.3762" y2="1366.51" gradientUnits="userSpaceOnUse">
<stop stop-color="#B37CFF"/>
<stop offset="1" stop-color="#F895E7"/>
</linearGradient>
<linearGradient id="paint7_linear" x1="555.91" y1="1292.56" x2="458.468" y2="967.439" gradientUnits="userSpaceOnUse">
<stop stop-color="#FDF53F"/>
<stop offset="1" stop-color="#D93C65"/>
</linearGradient>
<linearGradient id="paint8_linear" x1="552.792" y1="1087.87" x2="802.084" y2="1158.83" gradientUnits="userSpaceOnUse">
<stop stop-color="#F9B776"/>
<stop offset="1" stop-color="#F47960"/>
</linearGradient>
<linearGradient id="paint9_linear" x1="526.12" y1="718.601" x2="86.9659" y2="1289.8" gradientUnits="userSpaceOnUse">
<stop stop-color="#53D8FF"/>
<stop offset="1" stop-color="#3840F7"/>
</linearGradient>
<linearGradient id="paint10_linear" x1="383.181" y1="685.526" x2="548.145" y2="636.929" gradientUnits="userSpaceOnUse">
<stop stop-color="#F9B776"/>
<stop offset="1" stop-color="#F47960"/>
</linearGradient>
<linearGradient id="paint11_linear" x1="413.476" y1="632.002" x2="-25.6775" y2="1203.2" gradientUnits="userSpaceOnUse">
<stop stop-color="#53D8FF"/>
<stop offset="1" stop-color="#3840F7"/>
</linearGradient>
<linearGradient id="paint12_linear" x1="15.1073" y1="277.75" x2="263.56" y2="1150.08" gradientUnits="userSpaceOnUse">
<stop stop-color="#53D8FF"/>
<stop offset="1" stop-color="#3840F7"/>
</linearGradient>
<linearGradient id="paint13_linear" x1="395.722" y1="1145.3" x2="-182.79" y2="2331.39" gradientUnits="userSpaceOnUse">
<stop stop-color="#F9B776"/>
<stop offset="1" stop-color="#F47960"/>
</linearGradient>
<linearGradient id="paint14_linear" x1="574.426" y1="518.285" x2="345.648" y2="656.091" gradientUnits="userSpaceOnUse">
<stop stop-color="#F9B776"/>
<stop offset="1" stop-color="#F47960"/>
</linearGradient>
<linearGradient id="paint15_linear" x1="440.522" y1="374.468" x2="603.919" y2="641.525" gradientUnits="userSpaceOnUse">
<stop stop-color="#2B3582"/>
<stop offset="1" stop-color="#150E42"/>
</linearGradient>
<linearGradient id="paint16_linear" x1="552.089" y1="481.207" x2="323.311" y2="619.013" gradientUnits="userSpaceOnUse">
<stop stop-color="#F9B776"/>
<stop offset="1" stop-color="#F47960"/>
</linearGradient>
<linearGradient id="paint17_linear" x1="299.703" y1="1149.44" x2="648.68" y2="1262.66" gradientUnits="userSpaceOnUse">
<stop stop-color="#2B3582"/>
<stop offset="1" stop-color="#150E42"/>
</linearGradient>
<linearGradient id="paint18_linear" x1="540.492" y1="493.672" x2="374.816" y2="716.817" gradientUnits="userSpaceOnUse">
<stop stop-color="#53D8FF"/>
<stop offset="1" stop-color="#3840F7"/>
</linearGradient>
<linearGradient id="paint19_linear" x1="605.298" y1="552.575" x2="506.757" y2="681.48" gradientUnits="userSpaceOnUse">
<stop stop-color="#53D8FF"/>
<stop offset="1" stop-color="#3840F7"/>
</linearGradient>
<linearGradient id="paint20_linear" x1="715.563" y1="337.431" x2="12.0985" y2="581.346" gradientUnits="userSpaceOnUse">
<stop stop-color="#53D8FF"/>
<stop offset="1" stop-color="#3840F7"/>
</linearGradient>
<linearGradient id="paint21_linear" x1="575.93" y1="481.108" x2="135.162" y2="633.938" gradientUnits="userSpaceOnUse">
<stop stop-color="#53D8FF"/>
<stop offset="1" stop-color="#3840F7"/>
</linearGradient>
<linearGradient id="paint22_linear" x1="387.241" y1="439.495" x2="569.935" y2="887.863" gradientUnits="userSpaceOnUse">
<stop stop-color="#53D8FF"/>
<stop offset="1" stop-color="#3840F7"/>
</linearGradient>
<linearGradient id="paint23_linear" x1="683.254" y1="1477.95" x2="702.04" y2="1064.52" gradientUnits="userSpaceOnUse">
<stop stop-color="#2B3582"/>
<stop offset="1" stop-color="#150E42"/>
</linearGradient>
<linearGradient id="paint24_linear" x1="950.04" y1="773.966" x2="1091.44" y2="1135.68" gradientUnits="userSpaceOnUse">
<stop stop-color="#2B3582"/>
<stop offset="1" stop-color="#150E42"/>
</linearGradient>
<linearGradient id="paint25_linear" x1="933.001" y1="917.755" x2="1013.8" y2="1414.82" gradientUnits="userSpaceOnUse">
<stop stop-color="#2B3582"/>
<stop offset="1" stop-color="#150E42"/>
</linearGradient>
<linearGradient id="paint26_linear" x1="896.603" y1="1206.89" x2="1135.06" y2="1363.22" gradientUnits="userSpaceOnUse">
<stop stop-color="#2B3582"/>
<stop offset="1" stop-color="#150E42"/>
</linearGradient>
<linearGradient id="paint27_linear" x1="842.182" y1="412.891" x2="1217.39" y2="-33.1253" gradientUnits="userSpaceOnUse">
<stop stop-color="#53D8FF"/>
<stop offset="1" stop-color="#3840F7"/>
</linearGradient>
<linearGradient id="paint28_linear" x1="847.358" y1="-249.441" x2="388.386" y2="646.152" gradientUnits="userSpaceOnUse">
<stop stop-color="#53D8FF"/>
<stop offset="1" stop-color="#3840F7"/>
</linearGradient>
<linearGradient id="paint29_linear" x1="1332.11" y1="268.57" x2="1028.08" y2="710.95" gradientUnits="userSpaceOnUse">
<stop stop-color="#53D8FF"/>
<stop offset="1" stop-color="#3840F7"/>
</linearGradient>
<linearGradient id="paint30_linear" x1="510.881" y1="-181" x2="28.1531" y2="760.948" gradientUnits="userSpaceOnUse">
<stop stop-color="#53D8FF"/>
<stop offset="1" stop-color="#3840F7"/>
</linearGradient>
<clipPath id="clip0">
<rect width="1364" height="1345" fill="white"/>
</clipPath>
</defs>
</svg>